<svg version="1.0" xmlns="http://www.w3.org/2000/svg"
 width="732.000000pt" height="732.000000pt" viewBox="0 0 732.000000 732.000000"
 preserveAspectRatio="xMidYMid meet">
<g transform="translate(0.000000,732.000000) scale(0.100000,-0.100000)"
fill="#000000" stroke="none">
<path d="M0 3660 l0 -3660 3660 0 3660 0 0 3660 0 3660 -3660 0 -3660 0 0
-3660z m1515 696 c35 -59 42 -125 21 -181 l-18 -45 -88 0 -88 0 -18 45 c-21
56 -14 119 21 184 l25 46 60 -3 c59 -4 61 -5 85 -46z m1886 -208 c-18 -49 -92
-48 -99 1 -3 19 1 21 52 21 53 0 55 -1 47 -22z m-1078 -290 c53 -28 64 -92 22
-133 -34 -35 -78 -33 -117 5 -25 26 -29 36 -24 63 7 37 47 77 77 77 11 0 30
-5 42 -12z m2165 -570 c30 -33 36 -70 18 -106 -21 -41 -72 -56 -115 -32 -25
13 -45 64 -37 95 16 63 92 87 134 43z m-2 -220 c43 -39 37 -121 -11 -152 -80
-52 -180 41 -135 125 14 26 81 59 105 52 11 -3 30 -14 41 -25z m-1676 -766
c30 -38 22 -88 -19 -119 -45 -35 -121 5 -121 62 0 48 9 66 42 80 39 16 74 8
98 -23z"/>
</g>
</svg>
